<?xml version="1.0" standalone="no"?>
<!DOCTYPE svg PUBLIC "-//W3C//DTD SVG 20010904//EN"
 "http://www.w3.org/TR/2001/REC-SVG-20010904/DTD/svg10.dtd">
<svg version="1.0" xmlns="http://www.w3.org/2000/svg"
 width="1280.000000pt" height="1280.000000pt" viewBox="0 0 1280.000000 1280.000000"
 preserveAspectRatio="xMidYMid meet">
<metadata>
Created by potrace 1.11, written by Peter Selinger 2001-2013
</metadata>
<g transform="translate(0.000000,1280.000000) scale(0.100000,-0.100000)"
fill="#000000" stroke="none">
<path d="M11051 10754 c-7 -16 -66 -153 -131 -304 -186 -434 -400 -930 -421
-980 -11 -25 -24 -54 -29 -65 -4 -11 -20 -46 -34 -78 -14 -32 -26 -60 -26 -63
0 -3 -6 -20 -14 -37 -8 -18 -28 -63 -45 -100 -17 -38 -31 -70 -31 -72 0 -3
-11 -28 -24 -57 -13 -29 -136 -314 -274 -633 -137 -319 -261 -605 -275 -635
-14 -30 -45 -102 -70 -160 -168 -392 -207 -456 -332 -546 -30 -21 -55 -41 -55
-44 0 -3 162 -6 361 -6 327 1 359 2 338 16 -61 39 -98 82 -106 123 -8 40 -2
73 35 192 18 58 156 396 217 529 7 17 26 60 42 96 l28 65 662 0 c364 -1 664
-3 667 -5 4 -5 140 -330 248 -595 71 -174 86 -240 66 -296 -9 -27 -59 -78
-107 -109 -21 -14 27 -16 515 -15 531 0 539 0 541 20 2 14 -14 32 -52 60 -70
52 -115 124 -200 315 -37 85 -79 180 -92 210 -14 30 -30 69 -38 85 -7 17 -22
51 -34 77 -12 26 -21 49 -21 52 0 2 -15 37 -34 78 -18 40 -77 174 -131 298
-53 124 -107 248 -120 276 -13 27 -33 72 -43 100 -11 27 -31 74 -45 104 -57
127 -275 629 -322 740 -15 36 -36 85 -47 110 -11 25 -28 63 -38 85 -49 110
-508 1172 -511 1184 -3 8 -10 2 -18 -15z m-71 -1449 c50 -121 95 -229 100
-240 5 -11 26 -60 46 -110 20 -49 42 -103 49 -120 59 -131 231 -555 226 -556
-36 -5 -1066 -2 -1074 3 -7 4 26 95 93 255 56 136 108 262 115 278 7 17 18 44
25 60 6 17 36 91 66 165 30 74 59 144 64 155 5 11 44 107 86 214 l78 194 18
-39 c10 -21 59 -138 108 -259z"/>
<path d="M4438 10725 c-2 -1 -30 -5 -63 -8 -93 -9 -261 -45 -310 -66 -11 -5
-36 -15 -55 -22 -138 -50 -302 -154 -404 -257 -180 -182 -264 -387 -270 -656
-9 -365 156 -643 529 -891 49 -33 108 -70 130 -83 43 -24 333 -168 450 -222
111 -51 168 -79 200 -98 219 -126 327 -260 362 -452 4 -19 6 -78 5 -130 -3
-278 -166 -510 -417 -596 -121 -41 -338 -52 -460 -25 -241 55 -458 210 -604
431 -20 30 -38 57 -42 60 -16 15 -107 207 -135 288 l-32 93 3 -98 c2 -54 7
-206 11 -338 4 -132 8 -274 9 -315 1 -41 3 -94 4 -118 l1 -43 86 -40 c48 -22
103 -46 123 -53 201 -74 297 -103 391 -120 19 -3 46 -9 60 -12 14 -3 43 -7 65
-10 22 -3 65 -9 95 -14 30 -4 134 -7 230 -5 168 3 193 5 257 19 15 4 42 9 58
12 113 20 327 114 453 198 75 51 204 171 261 243 112 143 195 339 218 520 8
62 8 220 0 299 -25 252 -138 471 -321 625 -138 117 -274 194 -631 359 -425
196 -570 278 -674 380 -121 119 -165 282 -123 461 26 107 60 168 136 244 108
107 239 156 421 157 329 0 626 -180 809 -491 35 -61 78 -154 89 -196 6 -20 2
209 -9 520 -3 94 -6 188 -7 210 -1 37 -4 41 -53 67 -151 80 -376 143 -584 164
-65 6 -257 13 -262 9z"/>
<path d="M21 10661 c0 -3 23 -24 52 -46 31 -25 60 -59 76 -90 l25 -50 1 -1225
c1 -674 5 -1250 9 -1280 34 -257 140 -481 307 -649 196 -198 459 -318 834
-382 89 -15 443 -19 540 -6 535 73 869 354 989 832 14 55 28 123 31 150 3 28
8 66 10 85 7 44 12 493 20 1575 3 468 7 869 10 892 6 57 40 120 87 164 l39 36
-305 0 -305 0 45 -40 c51 -44 69 -75 83 -139 7 -28 12 -503 15 -1239 5 -1276
6 -1266 -43 -1440 -55 -196 -165 -353 -316 -450 -124 -79 -264 -118 -456 -126
-524 -22 -825 232 -886 748 -4 35 -7 606 -8 1269 0 966 3 1214 13 1250 15 51
59 106 113 142 l37 24 -509 1 c-280 0 -509 -3 -508 -6z"/>
<path d="M6071 10621 c92 -86 85 79 84 -1807 l-1 -1659 -23 -52 c-13 -30 -42
-70 -66 -91 l-43 -39 806 3 c444 1 827 4 852 8 25 3 68 9 95 12 28 4 57 8 65
9 8 2 38 6 65 9 28 4 57 9 65 11 8 2 31 7 50 10 82 14 355 99 374 116 6 5 17
9 25 9 22 0 255 118 327 166 235 153 411 326 557 546 63 95 149 262 179 348
48 137 83 267 93 337 2 21 7 49 10 63 7 34 18 193 17 255 -3 286 -101 625
-260 890 -53 89 -162 231 -235 305 -192 197 -363 307 -682 441 -58 24 -261 81
-334 94 -19 3 -37 8 -41 10 -3 2 -33 6 -65 10 -33 3 -67 8 -75 11 -8 2 -42 6
-75 9 -33 4 -73 8 -90 11 -16 3 -411 7 -877 8 l-846 3 49 -46z m1458 -235
c383 -39 678 -175 913 -422 62 -65 148 -176 148 -191 0 -6 3 -13 8 -15 22 -10
119 -212 161 -336 60 -181 86 -347 86 -562 -1 -589 -194 -1053 -547 -1311 -29
-21 -58 -42 -63 -47 -6 -5 -49 -29 -96 -55 -135 -74 -334 -139 -492 -162 -27
-3 -57 -8 -68 -10 -78 -15 -727 -28 -730 -15 -1 3 -2 706 -3 1562 -1 1551 -1
1557 19 1562 11 2 63 5 115 6 52 0 95 2 96 3 5 5 396 -1 453 -7z"/>
<path d="M11917 6454 c-1 -1 -162 -5 -357 -8 -195 -4 -395 -9 -445 -11 -49 -2
-173 -6 -275 -10 -102 -4 -214 -8 -250 -10 -36 -2 -126 -6 -200 -10 -74 -3
-169 -8 -210 -10 -41 -3 -118 -7 -170 -10 -99 -5 -222 -12 -325 -20 -33 -3
-100 -7 -150 -10 -49 -3 -117 -8 -150 -11 -33 -2 -89 -7 -125 -9 -36 -3 -96
-7 -135 -10 -38 -3 -97 -8 -130 -11 -69 -5 -163 -13 -220 -19 -22 -2 -74 -6
-115 -10 -41 -3 -95 -8 -120 -10 -25 -3 -65 -7 -90 -9 -25 -3 -74 -7 -110 -11
-36 -3 -81 -8 -100 -10 -19 -2 -66 -6 -105 -10 -38 -4 -80 -8 -93 -10 -13 -2
-53 -7 -90 -10 -79 -8 -100 -10 -212 -24 -47 -6 -110 -13 -140 -16 -30 -3 -72
-7 -92 -10 -21 -3 -55 -7 -75 -10 -21 -2 -76 -9 -123 -15 -47 -6 -103 -13
-125 -16 -22 -2 -51 -7 -65 -9 -14 -2 -46 -7 -72 -9 -26 -3 -76 -10 -110 -15
-35 -6 -90 -13 -123 -17 -33 -3 -69 -8 -80 -10 -11 -3 -40 -7 -65 -10 -25 -3
-52 -7 -60 -9 -8 -2 -39 -7 -69 -10 -30 -4 -63 -9 -75 -11 -20 -4 -71 -11
-123 -19 -48 -6 -103 -15 -288 -46 -99 -17 -193 -32 -210 -35 -16 -2 -66 -11
-110 -19 -44 -8 -93 -17 -110 -20 -16 -3 -41 -7 -55 -10 -14 -2 -63 -11 -110
-19 -47 -9 -95 -17 -106 -20 -12 -2 -39 -7 -60 -10 -22 -4 -55 -11 -74 -16
-19 -5 -51 -11 -70 -13 -41 -6 -78 -14 -338 -68 -108 -22 -206 -43 -217 -45
-19 -3 -489 -110 -527 -120 -10 -2 -27 -6 -38 -8 -241 -54 -1179 -308 -1310
-356 -14 -5 -86 -27 -160 -50 -74 -23 -142 -44 -150 -47 -8 -4 -17 -7 -20 -8
-78 -19 -767 -266 -895 -320 -16 -7 -95 -38 -175 -70 -80 -32 -173 -71 -208
-86 -35 -16 -65 -29 -68 -29 -2 0 -23 -9 -47 -19 -23 -11 -87 -40 -142 -64
-215 -94 -682 -326 -658 -327 6 0 31 8 55 19 82 35 856 290 958 315 8 2 62 18
120 36 58 17 112 33 120 35 8 2 40 11 70 20 30 9 62 18 70 20 8 2 96 26 195
54 142 39 555 148 635 167 8 1 126 30 263 63 202 50 482 115 582 137 11 2 31
6 45 9 14 4 36 8 50 11 14 3 45 10 70 15 82 19 544 115 600 125 14 2 48 9 75
14 28 6 61 12 75 15 14 3 50 10 80 16 30 5 66 12 80 15 14 2 36 7 50 9 14 3
37 8 52 10 16 3 40 7 55 10 15 2 49 9 77 14 28 6 62 12 76 15 14 2 53 9 88 16
35 6 76 13 92 15 16 2 53 8 82 14 29 6 69 12 88 15 19 3 87 14 150 25 63 11
133 22 155 25 22 4 96 16 165 27 142 23 118 19 355 54 99 14 191 28 205 30 14
2 48 7 75 10 28 4 61 8 75 10 14 2 79 11 145 20 66 8 129 17 140 19 11 2 47 7
80 10 33 4 71 9 85 11 14 3 50 7 80 10 30 3 66 7 80 9 14 2 54 7 90 11 36 4
72 9 81 10 9 2 52 6 95 10 43 4 87 9 96 10 9 2 48 7 85 10 37 4 79 8 93 10 14
2 54 7 90 10 36 4 81 8 100 10 19 2 67 6 105 10 39 4 81 8 95 10 14 2 59 7
100 10 41 4 91 8 110 10 19 2 71 6 115 10 44 4 96 8 115 10 19 2 73 6 120 10
47 4 101 8 120 10 19 2 76 6 125 10 50 3 110 8 135 10 25 2 90 7 145 10 55 3
120 8 145 10 25 2 97 7 160 10 63 3 142 8 175 10 78 6 238 14 585 30 216 10
529 20 935 30 229 6 1432 6 1678 0 l227 -5 0 265 0 265 -32 1 c-46 2 -759 4
-761 3z"/>
<path d="M133 6200 l0 -252 56 7 c31 3 70 8 86 10 217 25 1090 25 1640 0 50
-2 149 -7 220 -10 72 -3 168 -8 215 -10 47 -3 135 -7 195 -10 172 -9 275 -14
340 -19 33 -3 112 -8 175 -11 63 -3 144 -7 180 -10 36 -3 103 -7 150 -10 47
-3 110 -7 140 -10 83 -6 194 -14 305 -21 55 -3 114 -7 130 -9 17 -2 80 -7 140
-11 61 -3 124 -8 140 -10 71 -8 190 -16 185 -12 -22 22 -519 171 -775 233
-150 37 -168 41 -215 50 -14 3 -35 7 -47 10 -174 39 -619 120 -778 141 -27 3
-59 8 -69 10 -21 4 -146 21 -211 29 -22 3 -56 7 -75 10 -19 3 -54 7 -78 10
-66 8 -124 15 -162 20 -19 2 -64 7 -100 10 -36 3 -76 8 -90 10 -14 2 -52 7
-85 10 -33 3 -82 8 -110 10 -88 8 -158 14 -245 21 -47 3 -101 8 -120 9 -19 2
-80 7 -135 10 -55 4 -120 8 -145 10 -25 2 -99 6 -165 10 -66 3 -154 8 -195 10
-41 3 -170 7 -286 11 l-211 7 0 -253z"/>
<path d="M1327 5614 c-1 -1 -162 -5 -357 -8 -331 -6 -596 -13 -750 -19 -36 -2
-70 -6 -76 -10 -7 -4 -11 -89 -11 -250 l0 -244 46 14 c50 15 234 58 291 68 19
3 42 8 50 10 12 4 115 21 530 90 33 5 145 22 195 29 22 4 51 8 65 11 30 5 79
12 145 20 28 3 73 10 100 15 28 5 75 12 105 15 30 3 66 8 80 11 14 2 41 6 60
9 19 2 51 6 70 9 19 3 55 8 80 11 25 3 56 8 70 10 24 4 53 8 145 20 22 2 54 7
70 9 17 2 55 7 85 11 30 3 62 8 70 10 8 2 40 7 70 10 30 3 66 8 80 10 14 3 50
7 80 10 68 7 180 21 322 40 18 3 56 7 83 10 28 3 59 7 70 10 11 2 31 4 44 4
13 1 22 3 20 5 -7 7 -226 23 -574 41 -178 9 -1250 25 -1258 19z"/>
<path d="M11697 5504 c-1 -1 -159 -5 -352 -9 -387 -8 -456 -10 -725 -19 -177
-6 -265 -10 -492 -21 -57 -3 -157 -7 -223 -10 -66 -3 -154 -8 -195 -10 -41 -3
-118 -7 -170 -10 -98 -5 -195 -11 -335 -20 -44 -3 -114 -8 -155 -10 -41 -3
-97 -7 -125 -10 -27 -2 -93 -7 -145 -11 -52 -3 -113 -8 -135 -10 -22 -2 -76
-6 -120 -9 -79 -6 -129 -10 -235 -20 -30 -3 -87 -7 -126 -10 -39 -3 -93 -7
-120 -10 -27 -3 -71 -7 -99 -10 -27 -3 -72 -7 -100 -10 -27 -3 -78 -7 -111
-10 -34 -3 -81 -7 -105 -10 -51 -6 -124 -14 -191 -20 -80 -8 -152 -16 -178
-20 -14 -2 -56 -7 -94 -10 -37 -3 -82 -8 -100 -10 -17 -3 -56 -7 -86 -10 -64
-7 -110 -12 -165 -19 -22 -3 -60 -8 -85 -11 -25 -3 -61 -8 -80 -10 -19 -3 -57
-7 -85 -10 -51 -6 -210 -26 -345 -45 -87 -12 -137 -18 -200 -25 -25 -3 -70
-10 -100 -15 -30 -5 -77 -12 -105 -15 -27 -4 -61 -8 -75 -11 -14 -2 -41 -6
-60 -9 -19 -3 -80 -12 -135 -20 -55 -8 -129 -20 -165 -25 -36 -5 -76 -12 -90
-14 -14 -3 -56 -9 -95 -15 -38 -6 -86 -14 -105 -17 -19 -3 -62 -10 -95 -16
-33 -5 -73 -12 -90 -15 -16 -2 -66 -10 -110 -18 -44 -8 -93 -17 -110 -19 -31
-6 -288 -51 -340 -61 -192 -35 -320 -60 -420 -80 -114 -23 -139 -28 -203 -40
-34 -7 -253 -53 -312 -66 -25 -5 -54 -11 -65 -13 -11 -3 -74 -16 -140 -31 -66
-15 -131 -29 -145 -31 -14 -3 -101 -23 -195 -45 -93 -23 -179 -42 -190 -45
-68 -13 -803 -202 -915 -234 -41 -12 -97 -28 -125 -35 -27 -7 -90 -25 -140
-40 -100 -29 -93 -27 -155 -44 -25 -7 -90 -26 -145 -43 -55 -17 -143 -44 -195
-60 -97 -30 -403 -126 -430 -135 -8 -3 -109 -38 -225 -77 l-210 -71 -1 -845
c0 -465 2 -851 4 -857 3 -10 1270 -13 6288 -13 5978 0 6284 1 6285 18 4 84 1
3463 -3 3467 -5 5 -1006 13 -1011 9z"/>
</g>
</svg>
